<svg xmlns="http://www.w3.org/2000/svg" width="120" height="24" fill="#fff"><path d="M17.38 17.7q0 .54-.37.92l-1.8 1.82q-.4.37-.92.37t-.9-.36L9.42 16.5 5.5 20.44q-.38.37-.92.37t-.9-.36l-1.83-1.82q-.38-.38-.38-.92t.38-.9l3.94-3.94-3.95-3.94q-.38-.38-.38-.9t.38-.92l1.82-1.83q.37-.37.9-.37t.92.37L9.42 9.2l3.94-3.93q.37-.37.9-.37t.92.37L17 7.1q.38.37.38.9t-.37.92l-3.93 3.94L17 16.8q.38.37.38.9zm40.56 3.37l-8.73-8.72q-.5-.5-.5-1.2t.5-1.23l8.74-8.7q.5-.5 1.2-.5t1.22.5l1 1q.5.5.5 1.2t-.5 1.2l-6.5 6.52 6.5 6.5q.5.5.5 1.22t-.5 1.2l-1 1q-.5.5-1.2.5t-1.22-.5zm52.78-9.93q0 .7-.5 1.22l-8.73 8.72q-.5.5-1.2.5t-1.22-.5l-1.02-1q-.5-.53-.5-1.22 0-.7.5-1.2l6.5-6.52-6.5-6.5q-.5-.5-.5-1.2 0-.72.5-1.22l1.02-1q.48-.5 1.2-.5t1.2.5l8.74 8.72q.5.5.5 1.2z"/></svg>